<svg width="19" height="21" viewBox="0 0 19 21" fill="none" xmlns="http://www.w3.org/2000/svg">
<path d="M3.04705 1.38265C2.5029 0.757994 1.55539 0.692735 0.930742 1.23689C0.30609 1.78104 0.240831 2.72854 0.784983 3.35319L3.04705 1.38265ZM15.981 20.1284C16.8074 20.1853 17.5236 19.5615 17.5805 18.735L18.5081 5.26689C18.565 4.44042 17.9412 3.72429 17.1147 3.66737C16.2882 3.61045 15.5721 4.23429 15.5152 5.06076L14.6906 17.0324L2.719 16.2079C1.89253 16.1509 1.1764 16.7748 1.11947 17.6012C1.06255 18.4277 1.68639 19.1438 2.51286 19.2008L15.981 20.1284ZM0.784983 3.35319L14.953 19.6172L17.2151 17.6466L3.04705 1.38265L0.784983 3.35319Z" fill="white"/>
</svg>
