<svg width="97" height="97" viewBox="0 0 97 97" fill="none" xmlns="http://www.w3.org/2000/svg">
<path d="M87.2088 57.3737C92.2786 35.8265 78.9209 14.2493 57.3737 9.17955C35.8265 4.10983 14.2493 17.4675 9.17954 39.0147C4.10982 60.5618 17.4675 82.1391 39.0146 87.2088C60.5618 92.2786 82.1391 78.9209 87.2088 57.3737Z" fill="#F3701E"/>
<g style="mix-blend-mode:multiply">
<path d="M88.28 48.1994C88.28 45.9794 88.09 43.8094 87.75 41.6894L70.95 24.8894V24.1094H24.51V43.2994H19.53C18.57 43.2994 17.79 44.0794 17.79 45.0294V65.6194C17.79 66.2994 18.19 66.8894 18.76 67.1694C18.9 67.4494 33.2 81.7694 38.65 87.1294C41.71 87.8794 44.91 88.2794 48.2 88.2794C70.34 88.2794 88.28 70.3394 88.28 48.1994Z" fill="#BDBDBD"/>
</g>
<path d="M74.2 41.2694H70.95V24.1094H24.51V43.2994H19.53C18.57 43.2994 17.79 44.0794 17.79 45.0294V65.6194C17.79 66.5794 18.57 67.3494 19.53 67.3494H29.01C29.97 67.3494 30.74 66.5694 30.74 65.6194V55.0594H43.53V57.8594H41.72V60.8094H53.72V57.8594H51.91V55.0594H56.67V64.9894C56.67 66.0794 57.56 66.9694 58.65 66.9694H74.2C75.29 66.9694 76.18 66.0894 76.18 64.9894V43.2494C76.18 42.1594 75.3 41.2694 74.2 41.2694Z" fill="#FDAF3A"/>
<path d="M70.9498 24.1094H24.5098V55.0594H70.9498V24.1094Z" fill="#0F303F"/>
<path d="M68.9498 26.1094H26.5098V51.6594H68.9498V26.1094Z" fill="white"/>
<path d="M57.8798 26.1094H26.5098V51.6594H32.7598L57.8798 26.1094Z" fill="#E8E8E8"/>
<path d="M51.9093 55.0593H43.5293V57.8593H51.9093V55.0593Z" fill="black"/>
<path d="M53.7197 57.8594H41.7197V60.8094H53.7197V57.8594Z" fill="#0F303F"/>
<path d="M58.6499 41.2693C57.5599 41.2693 56.6699 42.1593 56.6699 43.2493V64.9893C56.6699 66.0793 57.5599 66.9693 58.6499 66.9693H66.4199V41.2793H58.6499V41.2693Z" fill="#0F303F"/>
<path d="M74.1997 41.2693H66.4297V66.9593H74.1997C75.2897 66.9593 76.1797 66.0793 76.1797 64.9793V43.2393C76.1797 42.1493 75.2997 41.2593 74.1997 41.2593V41.2693Z" fill="#0F303F"/>
<path d="M67.5101 65.4694C67.5101 66.0694 67.0201 66.5594 66.4201 66.5594C65.8201 66.5594 65.3301 66.0694 65.3301 65.4694C65.3301 64.8694 65.8201 64.3794 66.4201 64.3794C67.0201 64.3794 67.5101 64.8694 67.5101 65.4694Z" fill="white"/>
<path d="M71.8398 42.3192C71.8398 42.5292 71.6698 42.6892 71.4698 42.6892C71.2698 42.6892 71.0898 42.5192 71.0898 42.3192C71.0898 42.1192 71.2598 41.9392 71.4698 41.9392C71.6798 41.9392 71.8398 42.1092 71.8398 42.3192Z" fill="white"/>
<path d="M66.3803 43.3992H57.5303V63.6792H66.3803H75.3103V43.3992H66.3803Z" fill="#FFD028"/>
<path d="M71.9603 43.3992H66.3803H57.5303V60.8592L71.9603 43.3992Z" fill="#FDAF3A"/>
<path d="M29.0105 43.2893H24.2705V67.3493H29.0105C29.9705 67.3493 30.7405 66.5693 30.7405 65.6193V45.0293C30.7405 44.0693 29.9605 43.2993 29.0105 43.2993V43.2893Z" fill="#0F303F"/>
<path d="M19.53 43.2893C18.57 43.2893 17.79 44.0693 17.79 45.0193V65.6093C17.79 66.5693 18.57 67.3393 19.53 67.3393H24.27V43.2793H19.53V43.2893Z" fill="#0F303F"/>
<path d="M26.9096 44.2593H21.6396V44.6893H26.9096V44.2593Z" fill="white"/>
<path d="M24.2698 66.6793C23.4798 66.6793 22.8398 66.0393 22.8398 65.2493C22.8398 64.4593 23.4798 63.8193 24.2698 63.8193C25.0598 63.8193 25.6998 64.4593 25.6998 65.2493C25.6998 66.0393 25.0598 66.6793 24.2698 66.6793ZM24.2698 64.1293C23.6498 64.1293 23.1498 64.6293 23.1498 65.2493C23.1498 65.8693 23.6498 66.3693 24.2698 66.3693C24.8898 66.3693 25.3898 65.8693 25.3898 65.2493C25.3898 64.6293 24.8898 64.1293 24.2698 64.1293Z" fill="white"/>
<path d="M24.3399 45.8994H18.4199V62.9494H24.3399H30.1199V45.8994H24.3399Z" fill="#FFD028"/>
<path d="M25.8299 45.8994H24.3399H18.4199V54.0894L25.8299 45.8994Z" fill="#FDAF3A"/>
</svg>
