<svg width="81" height="89" viewBox="0 0 81 89" fill="none" xmlns="http://www.w3.org/2000/svg">
<path d="M79.0913 49.2439C84.1535 27.695 70.7883 6.12236 49.2393 1.06016C27.6904 -4.00204 6.11777 9.36312 1.05557 30.9121C-4.00663 52.461 9.35853 74.0337 30.9075 79.0959C52.4565 84.1581 74.0291 70.7929 79.0913 49.2439Z" fill="#14B0BF"/>
<g style="mix-blend-mode:multiply">
<path d="M80.1597 40.0801C80.1597 37.2101 79.8497 34.4101 79.2797 31.7001L67.9497 19.8501H12.2197V56.9901L35.7197 79.9101C37.1497 80.0701 38.6097 80.1501 40.0897 80.1501C62.2297 80.1501 80.1697 62.2101 80.1697 40.0701L80.1597 40.0801Z" fill="#BFBFBF"/>
</g>
<path d="M67.9497 19.8599H12.2197V56.9999H67.9497V19.8599Z" fill="#0F303F"/>
<path d="M65.5501 22.2598H14.6201V52.9198H65.5501V22.2598Z" fill="white"/>
<path d="M52.2701 22.2598H14.6201V52.9198H22.1301L52.2701 22.2598Z" fill="#E8E8E8"/>
<path d="M45.1098 56.9998H35.0498V60.3598H45.1098V56.9998Z" fill="black"/>
<path d="M47.2799 60.3599H32.8799V63.8999H47.2799V60.3599Z" fill="#0F303F"/>
<path d="M28.16 33.2099C28.29 33.1299 28.44 33.0999 28.62 33.0999C28.75 33.0999 28.87 33.1199 28.98 33.1699C29.09 33.2199 29.19 33.2899 29.27 33.3699C29.35 33.4499 29.42 33.5499 29.47 33.6599C29.52 33.7699 29.54 33.8899 29.54 34.0199C29.54 34.3499 29.39 34.6199 29.08 34.8199L23.73 38.0199L29.08 41.2399C29.38 41.4399 29.54 41.6999 29.54 42.0299C29.54 42.2899 29.45 42.5099 29.27 42.6799C29.09 42.8499 28.87 42.9399 28.62 42.9399C28.44 42.9399 28.29 42.8999 28.16 42.8299L21.52 38.8399C21.2 38.6399 21.04 38.3699 21.04 38.0199C21.04 37.6999 21.2 37.4299 21.52 37.2099L28.16 33.2099Z" fill="black"/>
<path d="M43.3097 31.51L37.8896 45.06C37.6696 45.42 37.3896 45.6 37.0496 45.6C36.7896 45.6 36.5697 45.51 36.3997 45.34C36.2297 45.16 36.1396 44.94 36.1396 44.68C36.1396 44.56 36.1697 44.44 36.2197 44.3L41.6396 30.75C41.6896 30.65 41.7496 30.56 41.8396 30.47C42.0196 30.29 42.2296 30.21 42.4796 30.21C42.7296 30.21 42.9497 30.3 43.1297 30.48C43.3097 30.66 43.3997 30.87 43.3997 31.13C43.3997 31.27 43.3696 31.4 43.3196 31.52L43.3097 31.51Z" fill="black"/>
<path d="M57.8804 37.2099C58.2004 37.4299 58.3604 37.6999 58.3604 38.0199C58.3604 38.3699 58.2004 38.6399 57.8804 38.8399L51.2404 42.8299C51.1104 42.9099 50.9603 42.9399 50.7803 42.9399C50.5203 42.9399 50.3004 42.8499 50.1304 42.6799C49.9504 42.5099 49.8604 42.2899 49.8604 42.0299C49.8604 41.6999 50.0104 41.4399 50.3204 41.2399L55.6703 38.0199L50.3204 34.8199C50.0204 34.6199 49.8604 34.3499 49.8604 34.0199C49.8604 33.8899 49.8804 33.7699 49.9304 33.6599C49.9804 33.5499 50.0504 33.4499 50.1304 33.3699C50.2104 33.2899 50.3103 33.2199 50.4203 33.1699C50.5303 33.1199 50.6503 33.0999 50.7803 33.0999C50.9603 33.0999 51.1104 33.1399 51.2404 33.2099L57.8804 37.2099Z" fill="black"/>
</svg>
