<svg width="82" height="81" viewBox="0 0 82 81" fill="none" xmlns="http://www.w3.org/2000/svg">
<path d="M81.0604 40.1393C81.0604 62.2793 63.1104 80.2193 40.9804 80.2193C18.8504 80.2193 0.900391 62.2693 0.900391 40.1393C0.900391 18.0093 18.8404 0.0593262 40.9804 0.0593262C63.1204 0.0593262 81.0604 17.9993 81.0604 40.1393Z" fill="#14B0BF"/>
<g style="mix-blend-mode:multiply">
<path d="M40.9805 80.2193C63.1205 80.2193 81.0605 62.2693 81.0605 40.1393C81.0605 35.7693 80.3505 31.5793 79.0605 27.6393L71.4805 19.5793H10.4805V60.6893H11.0705L28.6505 78.2793C32.5305 79.5293 36.6705 80.2193 40.9805 80.2193Z" fill="#BFBFBF"/>
</g>
<path d="M10.4805 19.5793V60.6893H71.4805V19.5793H10.4805ZM68.7305 57.8593H13.2305V22.4093H68.7305V57.8593Z" fill="#0F303F"/>
<path d="M68.7305 22.4194H13.2305V28.1994H68.7305V22.4194Z" fill="#4B4B55"/>
<path d="M58.8908 24.0293H56.3408V26.5793H58.8908V24.0293Z" fill="#FFD028"/>
<path d="M62.6603 24.0293H60.1104V26.5793H62.6603V24.0293Z" fill="#C1D64B"/>
<path d="M66.4406 24.0293H63.8906V26.5793H66.4406V24.0293Z" fill="#FD692B"/>
<path d="M40.9805 28.1992H13.2305V57.8592H40.9805H68.7305V28.1992H40.9805Z" fill="white"/>
<path d="M66.4309 29.7893H15.9209V37.3393H66.4309V29.7893Z" fill="#FFD028"/>
<path d="M52.6209 39.2593H15.9209V56.1893H52.6209V39.2593Z" fill="#FFD028"/>
<path d="M66.4309 39.2593H54.8809V56.1893H66.4309V39.2593Z" fill="#FFD028"/>
</svg>
