<svg width="81" height="84" viewBox="0 0 81 84" fill="none" xmlns="http://www.w3.org/2000/svg">
<path d="M79.9623 44.0312C82.1454 22.0035 66.0583 2.37683 44.0306 0.193707C22.003 -1.98941 2.37625 14.0978 0.193127 36.1254C-1.99 58.1531 14.0972 77.7798 36.1248 79.9629C58.1525 82.146 77.7792 66.0589 79.9623 44.0312Z" fill="#9FB603"/>
<g style="mix-blend-mode:multiply">
<path d="M40.0803 80.16C62.2203 80.16 80.1603 62.22 80.1603 40.08C80.1603 30.7 76.9303 22.07 71.5303 15.24C69.8803 16.05 67.9503 17.06 66.2003 18.15C66.0203 18.26 65.8503 18.37 65.6703 18.48H11.5303V55.62L36.4803 79.99C37.6703 80.1 38.8703 80.16 40.0803 80.16Z" fill="#BFBFBF"/>
</g>
<path d="M67.2603 18.48H11.5303V55.62H67.2603V18.48Z" fill="#0F303F"/>
<path d="M64.8607 20.8799H13.9307V51.5399H64.8607V20.8799Z" fill="white"/>
<path d="M51.5907 20.8799H13.9307V51.5399H21.4407L51.5907 20.8799Z" fill="#E8E8E8"/>
<path d="M44.4301 55.6199H34.3701V58.9799H44.4301V55.6199Z" fill="black"/>
<path d="M46.5904 58.98H32.1904V62.52H46.5904V58.98Z" fill="#0F303F"/>
<path d="M53.66 27.3098C53.66 27.3098 48.4 26.6498 46.95 29.6798C45.5 32.7098 44.85 38.2299 43.4 38.4899C41.95 38.7499 53.66 40.8598 57.47 32.4398C61.29 24.0198 53.66 27.3098 53.66 27.3098Z" fill="#4B4B55"/>
<path d="M59.3196 22.8899C59.3196 22.8899 62.0396 20.7399 66.1996 18.1599C70.3096 15.6099 75.4896 13.4199 75.4896 13.4199C75.4896 13.4199 72.8796 17.7399 69.3496 21.2199C66.2396 24.2899 63.1196 27.3099 63.1196 27.3099L59.3096 22.8799L59.3196 22.8899Z" fill="#6B3B55"/>
<path d="M70.8001 16.3098C70.8001 16.3098 63.8301 19.6898 59.2201 23.8898C54.6201 28.0998 60.4501 24.4198 60.4501 24.4198C60.4501 24.4198 66.2801 18.9798 70.8001 16.3098Z" fill="#A15980"/>
<path d="M59.3409 22.4539L53.5977 27.2305L57.6965 32.1587L63.4397 27.3821L59.3409 22.4539Z" fill="#F3701E"/>
<path d="M55.5072 25.6363L53.5928 27.2285L57.6916 32.1568L59.606 30.5646L55.5072 25.6363Z" fill="#14B0BF"/>
<path d="M59.2303 23.1499L56.0703 25.7299L56.8203 26.6099L59.8903 23.9799L59.2303 23.1499Z" fill="#F3B01E"/>
<path d="M52.9197 28.0599C52.9197 28.0599 49.4097 27.4899 48.2697 29.5499C47.1297 31.6099 50.1997 30.4699 52.9197 28.0599Z" fill="#7C7C8C"/>
</svg>
