<svg width="24" height="25" viewBox="0 0 24 25" fill="none" xmlns="http://www.w3.org/2000/svg">
<g clip-path="url(#clip0_33_1169)">
<g clip-path="url(#clip1_33_1169)">
<path d="M11.9998 10.2093C11.699 10.2093 11.4011 10.2686 11.1231 10.3837C10.8452 10.4989 10.5926 10.6676 10.3799 10.8803C10.1671 11.0931 9.99837 11.3456 9.88323 11.6236C9.7681 11.9016 9.70884 12.1995 9.70884 12.5003C9.70884 12.8012 9.7681 13.0991 9.88323 13.3771C9.99837 13.655 10.1671 13.9076 10.3799 14.1203C10.5926 14.333 10.8452 14.5018 11.1231 14.6169C11.4011 14.7321 11.699 14.7913 11.9998 14.7913C12.6075 14.7913 13.1902 14.55 13.6198 14.1203C14.0495 13.6907 14.2908 13.1079 14.2908 12.5003C14.2908 11.8927 14.0495 11.31 13.6198 10.8803C13.1902 10.4507 12.6075 10.2093 11.9998 10.2093ZM11.9998 8.68133C12.5066 8.67313 13.01 8.76586 13.4806 8.95413C13.9511 9.1424 14.3796 9.42243 14.7409 9.77792C15.1021 10.1334 15.3891 10.5572 15.5849 11.0247C15.7808 11.4922 15.8816 11.994 15.8816 12.5008C15.8816 13.0077 15.7808 13.5095 15.5849 13.9769C15.3891 14.4444 15.1021 14.8683 14.7409 15.2237C14.3796 15.5792 13.9511 15.8593 13.4806 16.0475C13.01 16.2358 12.5066 16.3285 11.9998 16.3203C10.9867 16.3203 10.0151 15.9179 9.29869 15.2015C8.5823 14.4851 8.17984 13.5135 8.17984 12.5003C8.17984 11.4872 8.5823 10.5156 9.29869 9.79918C10.0151 9.08279 10.9867 8.68133 11.9998 8.68133ZM16.9648 8.49033C16.969 8.61827 16.9474 8.74575 16.9013 8.86517C16.8552 8.98459 16.7855 9.09353 16.6965 9.1855C16.6074 9.27747 16.5008 9.3506 16.3829 9.40055C16.2651 9.45049 16.1384 9.47623 16.0103 9.47623C15.8823 9.47623 15.7556 9.45049 15.6378 9.40055C15.5199 9.3506 15.4133 9.27747 15.3242 9.1855C15.2352 9.09353 15.1655 8.98459 15.1194 8.86517C15.0733 8.74575 15.0517 8.61827 15.0558 8.49033C15.0558 8.23705 15.1565 7.99414 15.3356 7.81504C15.5147 7.63594 15.7576 7.53533 16.0108 7.53533C16.2641 7.53533 16.507 7.63594 16.6861 7.81504C16.8652 7.99414 16.9648 8.23705 16.9648 8.49033ZM11.9998 6.39033C10.1098 6.39033 9.80184 6.39433 8.92284 6.43333C8.32284 6.46233 7.92184 6.54233 7.54884 6.68733C7.21784 6.81533 6.97884 6.96933 6.72384 7.22433C6.48384 7.45533 6.30084 7.73733 6.18584 8.04933C6.04084 8.42333 5.96084 8.82433 5.93284 9.42333C5.89284 10.2663 5.88884 10.5613 5.88884 12.5003C5.88884 14.3903 5.89384 14.6993 5.93284 15.5783C5.96184 16.1763 6.04184 16.5783 6.18584 16.9513C6.31584 17.2833 6.46884 17.5223 6.72284 17.7763C6.97984 18.0323 7.21884 18.1863 7.54784 18.3133C7.92484 18.4593 8.32684 18.5403 8.92284 18.5673C9.76584 18.6073 10.0608 18.6113 11.9998 18.6113C13.8898 18.6113 14.1988 18.6063 15.0778 18.5673C15.6748 18.5393 16.0778 18.4593 16.4508 18.3143C16.7808 18.1853 17.0218 18.0323 17.2758 17.7783C17.5328 17.5203 17.6858 17.2813 17.8128 16.9533C17.9588 16.5763 18.0398 16.1733 18.0668 15.5783C18.1068 14.7353 18.1108 14.4403 18.1108 12.5003C18.1108 10.6103 18.1058 10.3023 18.0668 9.42333C18.0388 8.82533 17.9588 8.42233 17.8128 8.04933C17.6977 7.73765 17.5142 7.45574 17.2758 7.22433C17.045 6.98503 16.7629 6.8011 16.4508 6.68633C16.0768 6.54133 15.6748 6.46133 15.0778 6.43333C14.2348 6.39333 13.9398 6.39033 11.9998 6.39033ZM11.9998 4.86133C14.0758 4.86133 14.3348 4.86933 15.1488 4.90733C15.9628 4.94533 16.5158 5.07333 17.0038 5.26233C17.5078 5.45633 17.9328 5.71933 18.3568 6.14333C18.7458 6.52533 19.0468 6.98733 19.2378 7.49733C19.4268 7.98333 19.5548 8.53733 19.5928 9.35133C19.6288 10.1663 19.6388 10.4253 19.6388 12.5013C19.6388 14.5763 19.6308 14.8353 19.5928 15.6493C19.5548 16.4633 19.4268 17.0163 19.2378 17.5043C19.0468 18.0143 18.7458 18.4763 18.3578 18.8573C17.9757 19.2457 17.5137 19.5463 17.0038 19.7383C16.5168 19.9273 15.9618 20.0553 15.1488 20.0933C14.3348 20.1293 14.0758 20.1393 11.9998 20.1393C9.92484 20.1393 9.66584 20.1313 8.85084 20.0933C8.03784 20.0553 7.48384 19.9273 6.99684 19.7383C6.48675 19.5472 6.02462 19.2469 5.64284 18.8583C5.25456 18.4763 4.95425 18.0143 4.76284 17.5043C4.57284 17.0173 4.44484 16.4623 4.40684 15.6493C4.37084 14.8353 4.36084 14.5763 4.36084 12.5003C4.36084 10.4253 4.36884 10.1663 4.40684 9.35133C4.44484 8.53733 4.57284 7.98433 4.76184 7.49733C4.95384 6.98733 5.25384 6.52533 5.64284 6.14333C6.02471 5.75489 6.48681 5.45456 6.99684 5.26333C7.48384 5.07333 8.03684 4.94533 8.85084 4.90733C9.66584 4.87133 9.92484 4.86133 12.0008 4.86133H11.9998Z" fill="white"/>
</g>
</g>
<defs>
<clipPath id="clip0_33_1169">
<rect width="24" height="24" fill="white" transform="translate(0 0.5)"/>
</clipPath>
<clipPath id="clip1_33_1169">
<rect width="24" height="24" fill="white" transform="translate(0 0.5)"/>
</clipPath>
</defs>
</svg>
